<svg width="834" height="133" viewBox="0 0 834 133" fill="none" xmlns="http://www.w3.org/2000/svg">
<path d="M159.984 110.885C151.452 102.353 147.186 91.9849 147.186 79.7809C147.186 67.5769 151.452 57.2629 159.984 48.8389C168.624 40.3069 179.208 36.0409 191.736 36.0409C204.48 36.0409 214.956 40.2529 223.164 48.6769C231.372 57.1009 235.476 67.4689 235.476 79.7809V84.6409H170.676C171.54 90.0409 173.97 94.6309 177.966 98.4109C181.962 102.191 186.552 104.081 191.736 104.081C197.46 104.081 202.374 102.461 206.478 99.2209C208.098 97.8169 209.394 96.1969 210.366 94.3609H234.666C232.83 99.8689 230.13 104.729 226.566 108.941C217.926 118.661 206.316 123.521 191.736 123.521C179.208 123.521 168.624 119.309 159.984 110.885ZM171.486 70.8709H211.176C210.312 66.5509 208.098 62.9329 204.534 60.0169C201.078 56.9929 196.812 55.4809 191.736 55.4809C186.66 55.4809 182.34 56.9389 178.776 59.8549C175.212 62.7709 172.782 66.4429 171.486 70.8709Z" fill="#1E1E1E"/>
<path d="M255.987 111.533C248.751 103.433 245.133 92.8489 245.133 79.7809C245.133 66.7129 248.751 56.1829 255.987 48.1909C263.331 40.0909 272.403 36.0409 283.203 36.0409C290.439 36.0409 296.973 38.2009 302.805 42.5209C305.289 44.5729 307.395 46.7329 309.123 49.0009H309.933V7.69086H332.613V121.091H309.933V110.561H309.123C307.395 112.829 305.289 114.989 302.805 117.041C296.973 121.361 290.439 123.521 283.203 123.521C272.403 123.521 263.331 119.525 255.987 111.533ZM274.293 61.9609C270.513 66.2809 268.623 72.2209 268.623 79.7809C268.623 87.3409 270.513 93.2809 274.293 97.6009C278.073 101.921 282.933 104.081 288.873 104.081C295.137 104.081 300.213 101.975 304.101 97.7629C307.989 93.4429 309.933 87.4489 309.933 79.7809C309.933 72.1129 307.989 66.1729 304.101 61.9609C300.213 57.6409 295.137 55.4809 288.873 55.4809C282.933 55.4809 278.073 57.6409 274.293 61.9609Z" fill="#1E1E1E"/>
<path d="M343.953 57.9109V38.4709H354.483V20.6509H377.163V38.4709H400.491V57.9109H377.163V101.651H401.463V121.091H354.483V57.9109H343.953Z" fill="#1E1E1E"/>
<path d="M422.285 110.885C413.753 102.353 409.487 91.9849 409.487 79.7809C409.487 67.5769 413.753 57.2629 422.285 48.8389C430.925 40.3069 441.509 36.0409 454.037 36.0409C466.781 36.0409 477.257 40.2529 485.465 48.6769C493.673 57.1009 497.777 67.4689 497.777 79.7809V84.6409H432.977C433.841 90.0409 436.271 94.6309 440.267 98.4109C444.263 102.191 448.853 104.081 454.037 104.081C459.761 104.081 464.675 102.461 468.779 99.2209C470.399 97.8169 471.695 96.1969 472.667 94.3609H496.967C495.131 99.8689 492.431 104.729 488.867 108.941C480.227 118.661 468.617 123.521 454.037 123.521C441.509 123.521 430.925 119.309 422.285 110.885ZM433.787 70.8709H473.477C472.613 66.5509 470.399 62.9329 466.835 60.0169C463.379 56.9929 459.113 55.4809 454.037 55.4809C448.961 55.4809 444.641 56.9389 441.077 59.8549C437.513 62.7709 435.083 66.4429 433.787 70.8709Z" fill="#1E1E1E"/>
<path d="M519.422 110.885C510.89 102.353 506.624 91.9849 506.624 79.7809C506.624 67.5769 510.89 57.2629 519.422 48.8389C528.062 40.3069 538.646 36.0409 551.174 36.0409C566.186 36.0409 577.634 41.4409 585.518 52.2409C589.082 56.8849 591.674 62.2849 593.294 68.4409H569.804C568.832 66.0649 567.536 63.9049 565.916 61.9609C561.812 57.6409 556.898 55.4809 551.174 55.4809C545.45 55.4809 540.482 57.7489 536.27 62.2849C532.166 66.8209 530.114 72.6529 530.114 79.7809C530.114 86.9089 532.166 92.7409 536.27 97.2769C540.482 101.813 545.45 104.081 551.174 104.081C556.898 104.081 561.812 101.921 565.916 97.6009C567.536 95.6569 568.832 93.4969 569.804 91.1209H593.294C591.782 97.3849 589.298 102.785 585.842 107.321C577.958 118.121 566.402 123.521 551.174 123.521C538.646 123.521 528.062 119.309 519.422 110.885Z" fill="#1E1E1E"/>
<path d="M606.247 121.091V7.69086H628.927V49.8109H629.737C631.141 47.3269 633.139 45.0589 635.731 43.0069C641.671 38.3629 648.313 36.0409 655.657 36.0409C665.917 36.0409 673.855 39.0109 679.471 44.9509C685.195 50.8909 688.057 59.5309 688.057 70.8709V121.091H665.377V74.1109C665.377 68.0629 663.865 63.4729 660.841 60.3409C657.925 57.1009 653.767 55.4809 648.367 55.4809C642.967 55.4809 638.377 57.5329 634.597 61.6369C630.817 65.7409 628.927 70.9789 628.927 77.3509V121.091H606.247Z" fill="#1E1E1E"/>
<rect x="0.341949" y="0.986572" width="131.21" height="131.209" rx="12" fill="#63D1F4"/>
<path d="M716.585 13.1667C716.585 3.92911 726.585 -1.8444 734.585 2.7744L827.119 56.1985C835.119 60.8174 835.119 72.3644 827.119 76.9832L734.585 130.407C726.585 135.026 716.585 129.253 716.585 120.015L716.585 13.1667Z" fill="#F46363"/>
</svg>
